<svg width="17" height="17" viewBox="0 0 17 17" fill="none" xmlns="http://www.w3.org/2000/svg">
<path id="&#238;&#130;&#130;" fill-rule="evenodd" clip-rule="evenodd" d="M8.5 17C9.67318 17 10.7772 16.7786 11.812 16.3359C12.8468 15.8932 13.7489 15.2873 14.5181 14.5181C15.2873 13.7489 15.8932 12.8468 16.3359 11.812C16.7786 10.7772 17 9.67318 17 8.5C17 7.32682 16.7786 6.22282 16.3359 5.18799C15.8932 4.15316 15.2873 3.25114 14.5181 2.48193C13.7489 1.71273 12.8468 1.10677 11.812 0.664062C10.7772 0.221354 9.67318 0 8.5 0C7.32682 0 6.22282 0.221354 5.18799 0.664062C4.15316 1.10677 3.25114 1.71273 2.48193 2.48193C1.71273 3.25114 1.10677 4.15316 0.664062 5.18799C0.221354 6.22282 0 7.32682 0 8.5C0 9.67318 0.221354 10.7772 0.664062 11.812C1.10677 12.8468 1.71273 13.7489 2.48193 14.5181C3.25114 15.2873 4.15316 15.8932 5.18799 16.3359C6.22282 16.7786 7.32682 17 8.5 17ZM8.5 15.9541C7.4707 15.9541 6.50505 15.7576 5.60303 15.3647C4.70101 14.9718 3.9152 14.4378 3.24561 13.7627C2.57601 13.0876 2.04476 12.299 1.65186 11.397C1.25895 10.495 1.0625 9.5293 1.0625 8.5C1.0625 7.4707 1.25895 6.50505 1.65186 5.60303C2.04476 4.70101 2.57601 3.9152 3.24561 3.24561C3.9152 2.57601 4.70101 2.04476 5.60303 1.65186C6.50505 1.25895 7.4707 1.0625 8.5 1.0625C9.5293 1.0625 10.495 1.25895 11.397 1.65186C12.299 2.04476 13.0848 2.57601 13.7544 3.24561C14.424 3.9152 14.9552 4.70101 15.3481 5.60303C15.741 6.50505 15.9375 7.4707 15.9375 8.5C15.9375 9.5293 15.741 10.495 15.3481 11.397C14.9552 12.299 14.424 13.0876 13.7544 13.7627C13.0848 14.4378 12.299 14.9718 11.397 15.3647C10.495 15.7576 9.5293 15.9541 8.5 15.9541ZM11.5049 11.5049C11.4053 11.6045 11.2808 11.6543 11.1313 11.6543C10.9819 11.6543 10.8574 11.6045 10.7578 11.5049L8.5 9.24707L6.24219 11.5049C6.14258 11.6045 6.01807 11.6543 5.86865 11.6543C5.71924 11.6543 5.59473 11.6045 5.49512 11.5049C5.39551 11.4053 5.3457 11.2808 5.3457 11.1313C5.3457 10.9819 5.39551 10.8574 5.49512 10.7578L7.75293 8.5L5.49512 6.24219C5.39551 6.14258 5.3457 6.01807 5.3457 5.86865C5.3457 5.71924 5.39551 5.59473 5.49512 5.49512C5.59473 5.39551 5.71924 5.3457 5.86865 5.3457C6.01807 5.3457 6.14258 5.39551 6.24219 5.49512L8.5 7.75293L10.7578 5.49512C10.8574 5.39551 10.9819 5.3457 11.1313 5.3457C11.2808 5.3457 11.4053 5.39551 11.5049 5.49512C11.6045 5.59473 11.6543 5.71924 11.6543 5.86865C11.6543 6.01807 11.6045 6.14258 11.5049 6.24219L9.24707 8.5L11.5049 10.7578C11.6045 10.8574 11.6543 10.9819 11.6543 11.1313C11.6543 11.2808 11.6045 11.4053 11.5049 11.5049Z" fill="#EF5350"/>
</svg>
